<?xml version="1.0" standalone="no"?>
<!DOCTYPE svg PUBLIC "-//W3C//DTD SVG 20010904//EN"
 "http://www.w3.org/TR/2001/REC-SVG-20010904/DTD/svg10.dtd">
<svg version="1.0" xmlns="http://www.w3.org/2000/svg"
 width="764.000000pt" height="764.000000pt" viewBox="0 0 764.000000 764.000000"
 preserveAspectRatio="xMidYMid meet">
<metadata>
Created by potrace 1.11, written by Peter Selinger 2001-2013
</metadata>
<g transform="translate(0.000000,764.000000) scale(0.100000,-0.100000)"
fill="#000000" stroke="none">
<path d="M5839 7416 c-2 -2 -60 -7 -129 -11 -69 -3 -138 -8 -155 -10 -16 -2
-57 -7 -90 -10 -33 -3 -73 -8 -90 -10 -16 -2 -52 -6 -80 -10 -27 -3 -104 -15
-170 -26 -169 -27 -188 -30 -255 -45 -14 -3 -36 -7 -50 -9 -35 -5 -381 -92
-445 -111 -118 -37 -302 -96 -320 -104 -11 -4 -65 -25 -120 -45 -106 -40 -113
-42 -245 -101 -113 -49 -319 -150 -336 -165 -8 -6 -14 -8 -14 -5 0 4 -17 -5
-37 -19 -21 -14 -41 -25 -44 -25 -11 0 -191 -110 -319 -196 -238 -158 -400
-293 -615 -508 -153 -153 -260 -278 -365 -428 -32 -46 -63 -88 -67 -94 -4 -5
-14 -21 -22 -35 -8 -13 -31 -51 -51 -84 -48 -78 -127 -230 -169 -325 -18 -41
-37 -84 -42 -95 -62 -140 -153 -470 -175 -635 -2 -19 -6 -42 -9 -50 -2 -8 -7
-44 -10 -80 -4 -36 -9 -78 -11 -95 -16 -123 -22 -446 -11 -595 14 -190 60
-419 115 -580 70 -202 167 -387 312 -595 314 -452 343 -511 336 -685 -4 -97
-27 -173 -88 -288 -142 -267 -389 -495 -703 -646 -55 -27 -111 -54 -125 -61
-14 -7 -50 -20 -80 -30 -30 -10 -59 -21 -65 -25 -5 -4 -23 -11 -40 -15 -45
-12 -44 -12 -135 -39 -90 -26 -157 -42 -218 -52 -20 -3 -39 -7 -42 -9 -3 -2
-24 -6 -46 -9 -22 -4 -51 -9 -64 -11 -14 -3 -45 -8 -70 -11 -25 -3 -56 -7 -70
-9 -52 -9 -225 -22 -329 -24 -30 0 -52 -3 -49 -6 5 -5 14 -8 70 -20 13 -2 43
-9 68 -15 25 -5 56 -12 70 -14 14 -3 50 -9 80 -15 30 -6 69 -13 85 -16 17 -2
39 -7 50 -9 11 -2 45 -7 75 -11 30 -4 64 -9 75 -11 11 -2 47 -7 80 -10 33 -3
62 -7 65 -9 3 -1 43 -6 90 -10 47 -4 99 -9 115 -11 175 -19 750 -26 955 -11
173 12 223 16 270 22 25 3 68 8 95 11 28 3 62 7 76 10 15 2 47 6 70 9 41 5
273 43 308 50 9 2 36 8 61 14 25 5 56 12 70 15 50 9 126 26 165 37 22 6 56 15
75 20 219 56 583 176 715 234 42 19 109 48 115 50 66 22 346 161 495 247 173
99 446 280 453 299 2 5 10 9 17 9 7 0 15 3 17 8 2 4 35 32 73 62 493 387 879
902 1077 1434 27 73 38 108 68 201 10 34 46 177 54 215 3 14 7 36 10 50 3 14
9 45 12 70 3 25 7 47 9 50 2 3 6 34 10 70 4 36 9 74 11 85 26 133 25 677 -1
805 -3 14 -8 45 -11 70 -3 25 -8 53 -10 62 -3 10 -7 30 -10 45 -15 83 -89 321
-105 337 -5 6 -9 16 -9 24 0 23 -123 261 -181 354 -30 46 -85 128 -124 183
-256 361 -298 448 -298 610 2 248 223 575 548 808 33 24 67 46 75 50 8 4 29
16 45 26 77 49 335 165 440 197 167 51 272 78 375 97 14 3 36 8 50 11 30 6 83
15 126 20 17 2 49 6 70 10 97 14 236 24 353 25 56 1 64 6 21 15 -14 2 -47 10
-75 16 -27 7 -59 14 -70 16 -11 1 -56 10 -99 19 -80 16 -103 20 -166 30 -19 3
-46 7 -60 10 -34 6 -98 15 -151 20 -24 3 -55 7 -69 9 -14 3 -59 8 -100 11 -41
4 -95 9 -120 11 -25 3 -70 7 -100 10 -65 6 -736 15 -741 10z"/>
</g>
</svg>
